<?xml version="1.0" encoding="UTF-8" standalone="no"?>
<!-- Created with Inkscape (http://www.inkscape.org/) -->

<svg
   xmlns:dc="http://purl.org/dc/elements/1.1/"
   xmlns:cc="http://creativecommons.org/ns#"
   xmlns:rdf="http://www.w3.org/1999/02/22-rdf-syntax-ns#"
   xmlns:svg="http://www.w3.org/2000/svg"
   xmlns="http://www.w3.org/2000/svg"
   xmlns:sodipodi="http://sodipodi.sourceforge.net/DTD/sodipodi-0.dtd"
   xmlns:inkscape="http://www.inkscape.org/namespaces/inkscape"
   width="1920"
   height="1080"
   viewBox="0 0 507.99999 285.75001"
   version="1.1"
   id="svg8"
   enable-background="new"
   inkscape:version="0.92.1 r15371"
   sodipodi:docname="201903242247-complexvenndiagram.svg"
   inkscape:export-filename="/home/thelibredesigner/GitHub/sustainable-packaging/custom/201903242250-complexvenndiagram.svg.png"
   inkscape:export-xdpi="96"
   inkscape:export-ydpi="96">
  <defs
     id="defs2">
    <inkscape:path-effect
       effect="spiro"
       id="path-effect11085"
       is_visible="true" />
    <marker
       inkscape:stockid="Arrow1Send"
       orient="auto"
       refY="0.0"
       refX="0.0"
       id="Arrow1Send"
       style="overflow:visible;"
       inkscape:isstock="true">
      <path
         id="path9343"
         d="M 0.0,0.0 L 5.0,-5.0 L -12.5,0.0 L 5.0,5.0 L 0.0,0.0 z "
         style="fill-rule:evenodd;stroke:#ffffff;stroke-width:1pt;stroke-opacity:1;fill:#ffffff;fill-opacity:1"
         transform="scale(0.2) rotate(180) translate(6,0)" />
    </marker>
    <marker
       inkscape:stockid="Arrow2Mend"
       orient="auto"
       refY="0.0"
       refX="0.0"
       id="Arrow2Mend"
       style="overflow:visible;"
       inkscape:isstock="true">
      <path
         id="path9355"
         style="fill-rule:evenodd;stroke-width:0.625;stroke-linejoin:round;stroke:#ffffff;stroke-opacity:1;fill:#ffffff;fill-opacity:1"
         d="M 8.7185878,4.0337352 L -2.2072895,0.016013256 L 8.7185884,-4.0017078 C 6.9730900,-1.6296469 6.9831476,1.6157441 8.7185878,4.0337352 z "
         transform="scale(0.6) rotate(180) translate(0,0)" />
    </marker>
    <marker
       inkscape:stockid="Arrow2Send"
       orient="auto"
       refY="0.0"
       refX="0.0"
       id="marker10592"
       style="overflow:visible;"
       inkscape:isstock="true">
      <path
         id="path10590"
         style="fill-rule:evenodd;stroke-width:0.625;stroke-linejoin:round;stroke:#ffffff;stroke-opacity:1;fill:#ffffff;fill-opacity:1"
         d="M 8.7185878,4.0337352 L -2.2072895,0.016013256 L 8.7185884,-4.0017078 C 6.9730900,-1.6296469 6.9831476,1.6157441 8.7185878,4.0337352 z "
         transform="scale(0.3) rotate(180) translate(-2.3,0)" />
    </marker>
    <marker
       inkscape:stockid="Arrow2Send"
       orient="auto"
       refY="0.0"
       refX="0.0"
       id="marker10462"
       style="overflow:visible;"
       inkscape:isstock="true">
      <path
         id="path10460"
         style="fill-rule:evenodd;stroke-width:0.625;stroke-linejoin:round;stroke:#ffffff;stroke-opacity:1;fill:#ffffff;fill-opacity:1"
         d="M 8.7185878,4.0337352 L -2.2072895,0.016013256 L 8.7185884,-4.0017078 C 6.9730900,-1.6296469 6.9831476,1.6157441 8.7185878,4.0337352 z "
         transform="scale(0.3) rotate(180) translate(-2.3,0)" />
    </marker>
    <marker
       inkscape:stockid="Arrow2Send"
       orient="auto"
       refY="0.0"
       refX="0.0"
       id="marker10338"
       style="overflow:visible;"
       inkscape:isstock="true">
      <path
         id="path10336"
         style="fill-rule:evenodd;stroke-width:0.625;stroke-linejoin:round;stroke:#ffffff;stroke-opacity:1;fill:#ffffff;fill-opacity:1"
         d="M 8.7185878,4.0337352 L -2.2072895,0.016013256 L 8.7185884,-4.0017078 C 6.9730900,-1.6296469 6.9831476,1.6157441 8.7185878,4.0337352 z "
         transform="scale(0.3) rotate(180) translate(-2.3,0)" />
    </marker>
    <marker
       inkscape:stockid="Arrow2Lend"
       orient="auto"
       refY="0.0"
       refX="0.0"
       id="marker10220"
       style="overflow:visible;"
       inkscape:isstock="true">
      <path
         id="path10218"
         style="fill-rule:evenodd;stroke-width:0.625;stroke-linejoin:round;stroke:#ffffff;stroke-opacity:1;fill:#ffffff;fill-opacity:1"
         d="M 8.7185878,4.0337352 L -2.2072895,0.016013256 L 8.7185884,-4.0017078 C 6.9730900,-1.6296469 6.9831476,1.6157441 8.7185878,4.0337352 z "
         transform="scale(1.1) rotate(180) translate(1,0)" />
    </marker>
    <marker
       inkscape:stockid="Tail"
       orient="auto"
       refY="0.0"
       refX="0.0"
       id="marker10048"
       style="overflow:visible"
       inkscape:isstock="true">
      <g
         id="g10046"
         transform="scale(-1.2)"
         style="stroke:#ffffff;stroke-opacity:1;fill:#ffffff;fill-opacity:1">
        <path
           id="path10034"
           d="M -3.8048674,-3.9585227 L 0.54352094,0"
           style="fill:#ffffff;fill-rule:evenodd;stroke:#ffffff;stroke-width:0.8;stroke-linecap:round;stroke-opacity:1;fill-opacity:1" />
        <path
           id="path10036"
           d="M -1.2866832,-3.9585227 L 3.0617053,0"
           style="fill:#ffffff;fill-rule:evenodd;stroke:#ffffff;stroke-width:0.8;stroke-linecap:round;stroke-opacity:1;fill-opacity:1" />
        <path
           id="path10038"
           d="M 1.3053582,-3.9585227 L 5.6537466,0"
           style="fill:#ffffff;fill-rule:evenodd;stroke:#ffffff;stroke-width:0.8;stroke-linecap:round;stroke-opacity:1;fill-opacity:1" />
        <path
           id="path10040"
           d="M -3.8048674,4.1775838 L 0.54352094,0.21974226"
           style="fill:#ffffff;fill-rule:evenodd;stroke:#ffffff;stroke-width:0.8;stroke-linecap:round;stroke-opacity:1;fill-opacity:1" />
        <path
           id="path10042"
           d="M -1.2866832,4.1775838 L 3.0617053,0.21974226"
           style="fill:#ffffff;fill-rule:evenodd;stroke:#ffffff;stroke-width:0.8;stroke-linecap:round;stroke-opacity:1;fill-opacity:1" />
        <path
           id="path10044"
           d="M 1.3053582,4.1775838 L 5.6537466,0.21974226"
           style="fill:#ffffff;fill-rule:evenodd;stroke:#ffffff;stroke-width:0.8;stroke-linecap:round;stroke-opacity:1;fill-opacity:1" />
      </g>
    </marker>
    <marker
       inkscape:stockid="Arrow1Lend"
       orient="auto"
       refY="0.0"
       refX="0.0"
       id="marker9948"
       style="overflow:visible;"
       inkscape:isstock="true">
      <path
         id="path9946"
         d="M 0.0,0.0 L 5.0,-5.0 L -12.5,0.0 L 5.0,5.0 L 0.0,0.0 z "
         style="fill-rule:evenodd;stroke:#000000;stroke-width:1pt;stroke-opacity:1;fill:#000000;fill-opacity:1"
         transform="scale(0.8) rotate(180) translate(12.5,0)" />
    </marker>
    <marker
       inkscape:stockid="Tail"
       orient="auto"
       refY="0.0"
       refX="0.0"
       id="marker9828"
       style="overflow:visible"
       inkscape:isstock="true">
      <g
         id="g9826"
         transform="scale(-1.2)"
         style="stroke:#ffffff;stroke-opacity:1;fill:#ffffff;fill-opacity:1">
        <path
           id="path9814"
           d="M -3.8048674,-3.9585227 L 0.54352094,0"
           style="fill:#ffffff;fill-rule:evenodd;stroke:#ffffff;stroke-width:0.8;stroke-linecap:round;stroke-opacity:1;fill-opacity:1" />
        <path
           id="path9816"
           d="M -1.2866832,-3.9585227 L 3.0617053,0"
           style="fill:#ffffff;fill-rule:evenodd;stroke:#ffffff;stroke-width:0.8;stroke-linecap:round;stroke-opacity:1;fill-opacity:1" />
        <path
           id="path9818"
           d="M 1.3053582,-3.9585227 L 5.6537466,0"
           style="fill:#ffffff;fill-rule:evenodd;stroke:#ffffff;stroke-width:0.8;stroke-linecap:round;stroke-opacity:1;fill-opacity:1" />
        <path
           id="path9820"
           d="M -3.8048674,4.1775838 L 0.54352094,0.21974226"
           style="fill:#ffffff;fill-rule:evenodd;stroke:#ffffff;stroke-width:0.8;stroke-linecap:round;stroke-opacity:1;fill-opacity:1" />
        <path
           id="path9822"
           d="M -1.2866832,4.1775838 L 3.0617053,0.21974226"
           style="fill:#ffffff;fill-rule:evenodd;stroke:#ffffff;stroke-width:0.8;stroke-linecap:round;stroke-opacity:1;fill-opacity:1" />
        <path
           id="path9824"
           d="M 1.3053582,4.1775838 L 5.6537466,0.21974226"
           style="fill:#ffffff;fill-rule:evenodd;stroke:#ffffff;stroke-width:0.8;stroke-linecap:round;stroke-opacity:1;fill-opacity:1" />
      </g>
    </marker>
    <marker
       inkscape:stockid="Arrow2Send"
       orient="auto"
       refY="0.0"
       refX="0.0"
       id="Arrow2Send"
       style="overflow:visible;"
       inkscape:isstock="true">
      <path
         id="path9361"
         style="fill-rule:evenodd;stroke-width:0.625;stroke-linejoin:round;stroke:#ffffff;stroke-opacity:1;fill:#ffffff;fill-opacity:1"
         d="M 8.7185878,4.0337352 L -2.2072895,0.016013256 L 8.7185884,-4.0017078 C 6.9730900,-1.6296469 6.9831476,1.6157441 8.7185878,4.0337352 z "
         transform="scale(0.3) rotate(180) translate(-2.3,0)" />
    </marker>
    <marker
       inkscape:stockid="Tail"
       orient="auto"
       refY="0.0"
       refX="0.0"
       id="Tail"
       style="overflow:visible"
       inkscape:isstock="true">
      <g
         id="g9376"
         transform="scale(-1.2)"
         style="stroke:#ffffff;stroke-opacity:1;fill:#ffffff;fill-opacity:1">
        <path
           id="path9364"
           d="M -3.8048674,-3.9585227 L 0.54352094,0"
           style="fill:#ffffff;fill-rule:evenodd;stroke:#ffffff;stroke-width:0.8;stroke-linecap:round;stroke-opacity:1;fill-opacity:1" />
        <path
           id="path9366"
           d="M -1.2866832,-3.9585227 L 3.0617053,0"
           style="fill:#ffffff;fill-rule:evenodd;stroke:#ffffff;stroke-width:0.8;stroke-linecap:round;stroke-opacity:1;fill-opacity:1" />
        <path
           id="path9368"
           d="M 1.3053582,-3.9585227 L 5.6537466,0"
           style="fill:#ffffff;fill-rule:evenodd;stroke:#ffffff;stroke-width:0.8;stroke-linecap:round;stroke-opacity:1;fill-opacity:1" />
        <path
           id="path9370"
           d="M -3.8048674,4.1775838 L 0.54352094,0.21974226"
           style="fill:#ffffff;fill-rule:evenodd;stroke:#ffffff;stroke-width:0.8;stroke-linecap:round;stroke-opacity:1;fill-opacity:1" />
        <path
           id="path9372"
           d="M -1.2866832,4.1775838 L 3.0617053,0.21974226"
           style="fill:#ffffff;fill-rule:evenodd;stroke:#ffffff;stroke-width:0.8;stroke-linecap:round;stroke-opacity:1;fill-opacity:1" />
        <path
           id="path9374"
           d="M 1.3053582,4.1775838 L 5.6537466,0.21974226"
           style="fill:#ffffff;fill-rule:evenodd;stroke:#ffffff;stroke-width:0.8;stroke-linecap:round;stroke-opacity:1;fill-opacity:1" />
      </g>
    </marker>
    <marker
       inkscape:stockid="Arrow2Lend"
       orient="auto"
       refY="0.0"
       refX="0.0"
       id="Arrow2Lend"
       style="overflow:visible;"
       inkscape:isstock="true">
      <path
         id="path9349"
         style="fill-rule:evenodd;stroke-width:0.625;stroke-linejoin:round;stroke:#ffffff;stroke-opacity:1;fill:#ffffff;fill-opacity:1"
         d="M 8.7185878,4.0337352 L -2.2072895,0.016013256 L 8.7185884,-4.0017078 C 6.9730900,-1.6296469 6.9831476,1.6157441 8.7185878,4.0337352 z "
         transform="scale(1.1) rotate(180) translate(1,0)" />
    </marker>
    <marker
       inkscape:stockid="Arrow1Lend"
       orient="auto"
       refY="0.0"
       refX="0.0"
       id="Arrow1Lend"
       style="overflow:visible;"
       inkscape:isstock="true">
      <path
         id="path9331"
         d="M 0.0,0.0 L 5.0,-5.0 L -12.5,0.0 L 5.0,5.0 L 0.0,0.0 z "
         style="fill-rule:evenodd;stroke:#ffffff;stroke-width:1pt;stroke-opacity:1;fill:#ffffff;fill-opacity:1"
         transform="scale(0.8) rotate(180) translate(12.5,0)" />
    </marker>
    <inkscape:path-effect
       effect="spiro"
       id="path-effect4555"
       is_visible="true" />
    <inkscape:path-effect
       effect="spiro"
       id="path-effect4549"
       is_visible="true" />
    <inkscape:path-effect
       effect="spiro"
       id="path-effect4534"
       is_visible="true" />
    <inkscape:path-effect
       effect="spiro"
       id="path-effect4527"
       is_visible="true" />
    <inkscape:path-effect
       effect="spiro"
       id="path-effect4518"
       is_visible="true" />
    <inkscape:path-effect
       effect="spiro"
       id="path-effect4514"
       is_visible="true" />
    <inkscape:path-effect
       effect="spiro"
       id="path-effect4501"
       is_visible="true" />
    <inkscape:path-effect
       effect="spiro"
       id="path-effect4496"
       is_visible="true" />
    <inkscape:path-effect
       effect="spiro"
       id="path-effect4487"
       is_visible="true" />
    <filter
       inkscape:collect="always"
       style="color-interpolation-filters:sRGB"
       id="filter4489">
      <feBlend
         inkscape:collect="always"
         mode="multiply"
         in2="BackgroundImage"
         id="feBlend4491" />
    </filter>
    <filter
       inkscape:collect="always"
       style="color-interpolation-filters:sRGB"
       id="filter4503">
      <feBlend
         inkscape:collect="always"
         mode="multiply"
         in2="BackgroundImage"
         id="feBlend4505" />
    </filter>
    <filter
       inkscape:collect="always"
       style="color-interpolation-filters:sRGB"
       id="filter4508">
      <feBlend
         inkscape:collect="always"
         mode="multiply"
         in2="BackgroundImage"
         id="feBlend4510" />
    </filter>
    <filter
       inkscape:collect="always"
       style="color-interpolation-filters:sRGB"
       id="filter4521">
      <feBlend
         inkscape:collect="always"
         mode="multiply"
         in2="BackgroundImage"
         id="feBlend4523" />
    </filter>
    <filter
       inkscape:collect="always"
       style="color-interpolation-filters:sRGB"
       id="filter4537">
      <feBlend
         inkscape:collect="always"
         mode="multiply"
         in2="BackgroundImage"
         id="feBlend4539" />
    </filter>
    <filter
       inkscape:collect="always"
       style="color-interpolation-filters:sRGB"
       id="filter4543">
      <feBlend
         inkscape:collect="always"
         mode="multiply"
         in2="BackgroundImage"
         id="feBlend4545" />
    </filter>
    <filter
       inkscape:collect="always"
       style="color-interpolation-filters:sRGB"
       id="filter11079">
      <feBlend
         inkscape:collect="always"
         mode="multiply"
         in2="BackgroundImage"
         id="feBlend11081" />
    </filter>
  </defs>
  <sodipodi:namedview
     id="base"
     pagecolor="#ffffff"
     bordercolor="#666666"
     borderopacity="1.0"
     inkscape:pageopacity="0.0"
     inkscape:pageshadow="2"
     inkscape:zoom="0.49497475"
     inkscape:cx="859.50979"
     inkscape:cy="373.47351"
     inkscape:document-units="px"
     inkscape:current-layer="layer5"
     showgrid="false"
     units="px"
     inkscape:showpageshadow="false"
     showborder="true"
     inkscape:window-width="1680"
     inkscape:window-height="1008"
     inkscape:window-x="0"
     inkscape:window-y="24"
     inkscape:window-maximized="1" />
  <metadata
     id="metadata5">
    <rdf:RDF>
      <cc:Work
         rdf:about="">
        <dc:format>image/svg+xml</dc:format>
        <dc:type
           rdf:resource="http://purl.org/dc/dcmitype/StillImage" />
        <dc:title></dc:title>
      </cc:Work>
    </rdf:RDF>
  </metadata>
  <g
     inkscape:groupmode="layer"
     id="layer3"
     inkscape:label="Layer 3">
    <path
       style="fill:#8ca573;stroke:none;stroke-width:0.26458335px;stroke-linecap:butt;stroke-linejoin:miter;stroke-opacity:1"
       d="M 554.31702,43.069271 C 718.34759,55.643519 886.3636,2.1453122 1013.4512,-102.31938 c 127.0877,-104.46469 212.0025,-258.62271 233.1994,-421.76325 21.1968,-163.14053 -21.3531,-333.582 -116.0609,-468.09805 -94.7079,-134.51602 -240.51617,-231.92272 -400.85837,-268.72652 -160.34221,-36.8038 -333.72972,-12.8456 -478.48175,65.3272 -144.75203,78.1728 -259.7190389,209.74286 -318.558736,363.37239 -58.839694,153.62952 -61.237964,328.02837 -7.435973,483.49375 53.801992,155.46539 163.245077,290.880671 303.527839,376.816038 6.80132,4.166397 13.74321,8.274978 19.4359,13.861568 2.84635,2.793295 5.36198,5.949799 7.22837,9.474113 1.86639,3.524314 3.07252,7.42624 3.26992,11.409358 0.25436,5.132448 -1.18635,10.288068 -3.77865,14.725038 -2.5923,4.436971 -6.30345,8.170539 -10.5392,11.080041 -8.47149,5.819003 -18.78853,8.294573 -28.97128,9.686862 -10.18275,1.392288 -20.51941,1.822362 -30.54388,4.088812 -10.02448,2.26644 -19.9648,6.61046 -26.66033,14.40769 -5.06536,5.89883 -7.98171,13.53622 -8.48694,21.29501 -0.50524,7.7588 1.35163,15.60882 4.96834,22.49167 3.6167,6.88284 8.95626,12.80635 15.22137,17.41098 6.2651,4.60464 13.44093,7.90944 20.92125,10.0305 14.96065,4.2421 30.89833,3.75273 46.27012,1.40225 15.37178,-2.35048 30.40412,-6.50943 45.65346,-9.5548 58.29529,-11.64186 120.22862,-6.48422 174.79427,17.10525 13.79888,5.96544 27.09196,13.06303 40.96843,18.84567 13.87648,5.78263 28.52774,10.2706 43.5561,10.65011 15.02836,0.37952 30.54795,-3.67022 42.03893,-13.36316 5.74548,-4.84647 10.39246,-11.04585 13.13469,-18.04435 2.74223,-6.99851 3.53836,-14.79468 1.95471,-22.14253 -1.77362,-8.22927 -6.47909,-15.68801 -12.68751,-21.37328 -6.20842,-5.68526 -13.8645,-9.65715 -21.90185,-12.16069 -16.0747,-5.00708 -33.29851,-4.23591 -50.11854,-3.49206 -16.82004,0.74386 -34.07658,1.35467 -50.05814,-3.94217 -7.99078,-2.64843 -15.56227,-6.79668 -21.61425,-12.64819 -6.05199,-5.8515 -10.52452,-13.4656 -11.99951,-21.753611 -1.30391,-7.326727 -0.23408,-15.000457 2.65513,-21.858561 2.88921,-6.858104 7.55314,-12.908886 13.18926,-17.768437 11.27225,-9.719101 26.06527,-14.520047 40.81674,-16.499608 22.12761,-2.969395 44.55675,-0.102838 66.8174,1.603618 z"
       id="path4499"
       inkscape:connector-curvature="0"
       inkscape:path-effect="#path-effect4501"
       inkscape:original-d="M 554.31702,43.069271 C 576.5892,43.604074 337.29441,33.090945 228.78271,28.102178 120.27102,23.113409 248.7391,51.265272 258.7169,62.847217 c 9.9778,11.581943 -66.9953,35.992032 -100.49334,53.988443 -33.49805,17.99642 83.032,42.05015 124.5476,63.07561 41.5156,21.02547 116.52979,11.40324 174.79427,17.10525 58.2645,5.70202 94.43551,-16.03643 141.65286,-24.05426 47.21736,-8.01782 -112.25294,-50.24693 -168.3798,-75.370001 -56.12688,-25.123074 37.77435,-37.418003 56.66113,-56.126606 18.88678,-18.708603 44.5452,1.068814 66.8174,1.603618 z" />
  </g>
  <g
     inkscape:groupmode="layer"
     id="layer9"
     inkscape:label="Layer 9"
     style="filter:url(#filter11079)">
    <path
       style="fill:#c2d3ba;stroke:none;stroke-width:0.26458335px;stroke-linecap:butt;stroke-linejoin:miter;stroke-opacity:1"
       d="m -55.057523,233.89972 c 2.473529,-13.52861 5.437452,-27.26594 12.436094,-39.10489 3.499321,-5.91948 8.002749,-11.29821 13.525364,-15.3953 5.522616,-4.09709 12.092204,-6.87742 18.939823,-7.50634 6.0531505,-0.55595 12.1725934,0.56452 17.9187458,2.5473 5.7461522,1.98279 11.1604312,4.81152 16.4760932,7.75999 10.631323,5.89693 21.402126,12.46519 33.491622,13.74696 6.685112,0.70878 13.56889,-0.28852 19.699858,-3.04612 6.130967,-2.75759 11.481142,-7.28999 15.045182,-12.99005 3.517044,-5.6249 5.261341,-12.23299 8.931891,-17.75894 1.83527,-2.76298 4.18325,-5.25379 7.10788,-6.81866 2.92463,-1.56487 6.47106,-2.12831 9.6181,-1.08027 2.48436,0.82735 4.58137,2.59788 6.13673,4.7044 1.55536,2.10651 2.60741,4.54233 3.45993,7.01817 1.70502,4.95167 2.73719,10.29955 5.90498,14.46984 2.48358,3.26955 6.17335,5.56193 10.16502,6.52355 3.99166,0.96162 8.2594,0.61817 12.11568,-0.79151 3.85628,-1.40968 7.3012,-3.86161 10.04347,-6.91744 2.74227,-3.05582 4.79216,-6.70407 6.16264,-10.57446 2.94999,-8.33108 2.73742,-17.45808 1.53217,-26.21346 -1.20525,-8.75539 -3.36313,-17.3736 -4.20487,-26.17137 -1.60114,-16.734882 1.79261,-34.104463 10.66045,-48.386667 8.86784,-14.282203 23.36889,-25.22708 39.82501,-28.664559 8.22805,-1.71874 16.8575,-1.576668 24.98493,0.568061 8.12743,2.144728 15.73538,6.30316 21.81948,12.103043 6.08411,5.799883 10.61797,13.240406 12.82989,21.349808 2.21192,8.109402 2.07531,16.867297 -0.53923,24.855987 -3.89638,11.905327 -13.38351,21.803897 -25.03937,26.392957 -11.65585,4.58907 -25.25224,3.84536 -36.43264,-1.80416 -4.75368,-2.40206 -9.08354,-5.63537 -14.01466,-7.64818 -2.46556,-1.00641 -5.08453,-1.6993 -7.74681,-1.76354 -2.66227,-0.0642 -5.37456,0.52538 -7.63818,1.92818 -2.45632,1.52222 -4.27872,3.93336 -5.44776,6.57608 -1.16905,2.64272 -1.72385,5.51815 -2.03578,8.39101 -1.78263,16.41786 4.09022,32.67897 4.81085,49.17759 0.5449,12.47537 -2.0753,25.42876 -9.41704,35.52978 -3.67088,5.05051 -8.48674,9.30657 -14.08878,12.06339 -5.60204,2.75683 -11.99482,3.97835 -18.18823,3.18804 -8.32331,-1.0621 -15.76041,-5.57853 -22.75561,-10.2124 -6.99521,-4.63387 -14.02791,-9.58059 -22.145673,-11.7037 -10.68652,-2.79494 -22.286498,-0.29265 -31.925158,5.10268 -9.63866,5.39534 -17.516431,13.47928 -24.337802,22.16733 -6.821371,8.68806 -12.714941,18.06498 -19.32908,26.91182 C 16.683547,271.27051 9.2321988,279.68537 0,285.75001 c -6.6943872,4.39755 -14.360459,7.50947 -22.348254,8.09972 -7.987796,0.59024 -16.301405,-1.48907 -22.553028,-6.49611 -3.725773,-2.98404 -6.640047,-6.92088 -8.670724,-11.24087 -2.030676,-4.31998 -3.195526,-9.01785 -3.710053,-13.7635 -1.029054,-9.49129 0.507472,-19.0583 2.224536,-28.44953 z"
       id="path11083"
       inkscape:connector-curvature="0"
       inkscape:path-effect="#path-effect11085"
       inkscape:original-d="m -55.057523,233.89972 c -3.38568,-17.81771 29.934451,-41.33795 44.901281,-62.00653 14.9668291,-20.66858 45.257905,16.0359 67.886461,24.05425 22.628557,8.01835 23.163624,-10.69104 34.74504,-16.03617 11.581411,-5.34512 17.105511,-17.10551 25.657871,-25.65787 8.55237,-8.55236 10.33469,17.46134 15.50164,26.19241 5.16694,8.73107 25.65814,-7.84017 38.48681,-11.75986 12.82867,-3.91969 -1.78153,-34.92348 -2.6727,-52.38483 -0.89116,-17.461343 73.05394,-12.11648 109.58053,-18.174327 36.52655,-6.057844 -40.98108,16.392267 -61.47201,24.588797 -20.49093,8.19653 -19.5995,-4.98929 -29.39965,-7.48354 -9.80015,-2.49426 -4.98876,9.97779 -7.48354,14.96709 -2.49479,4.98929 3.20749,32.7848 4.81085,49.17759 1.60335,16.3928 -27.79577,33.85388 -41.69405,50.78121 -13.89828,16.92734 -29.93392,-14.61099 -44.901283,-21.9161 C 83.922369,200.93674 32.963507,259.91369 0,285.75001 c -32.963507,25.83632 -29.933925,1.06881 -44.901282,1.60361 -14.967358,0.5348 -6.770564,-35.6362 -10.156241,-53.4539 z" />
  </g>
  <g
     inkscape:groupmode="layer"
     id="layer4"
     inkscape:label="Layer 4"
     style="filter:url(#filter4508)">
    <path
       style="fill:#9db2b0;stroke:none;stroke-width:0.26458335px;stroke-linecap:butt;stroke-linejoin:miter;stroke-opacity:1"
       d="m -41.694048,267.04113 c 12.418505,0.40344 24.924166,-3.55408 34.8950415,-10.96783 9.9708759,-7.41375 17.3514215,-18.22551 20.6970225,-30.19167 4.805461,-17.18762 1.35631,-35.45016 -1.588348,-53.0523 -1.47233,-8.80108 -2.8153249,-17.66024 -2.9137,-26.58308 -0.098375,-8.92283 1.084851,-17.96021 4.502048,-26.20335 4.653487,-11.22539 13.328258,-20.535858 23.591834,-27.041494 10.263576,-6.505636 22.062005,-10.32797 34.04636,-12.337827 23.96871,-4.019713 48.48733,-0.981965 72.78934,-1.245651 20.26247,-0.219855 40.42958,-2.742405 60.67468,-3.609576 20.2451,-0.86717 40.87287,-0.02132 60.13114,6.28227 7.99488,2.616873 15.72612,6.181185 22.56572,11.078732 6.8396,4.897547 12.77542,11.164336 16.76879,18.568326 3.99337,7.40399 5.98056,15.97204 5.05911,24.33368 -0.92144,8.36164 -4.85626,16.45956 -11.2522,21.92381 -6.29051,5.37418 -14.56511,7.97921 -22.79752,8.80371 -8.23241,0.8245 -16.52944,2.4e-4 -24.76854,-0.75436 -8.23911,-0.7546 -16.56332,-1.43825 -24.76325,-0.33664 -8.19993,1.1016 -16.37008,4.14117 -22.28409,9.92708 -5.20019,5.08755 -8.35555,12.02867 -9.65992,19.18575 -1.30436,7.15709 -0.85094,14.54149 0.41604,21.70528 2.53395,14.3276 8.27656,28.02484 9.77841,42.49706 2.43644,23.47819 -6.88643,47.38523 -22.72376,64.88782 -15.83733,17.50258 -37.69655,28.90115 -60.6063,34.58489 -45.819504,11.36748 -93.84668,0.81193 -140.107266,-8.60107 -11.141911,-2.26713 -22.354527,-4.48371 -33.003668,-8.46842 -10.649141,-3.9847 -20.811317,-9.86322 -28.282073,-18.43467 -3.735378,-4.28573 -6.760146,-9.21732 -8.66686,-14.57315 -1.906713,-5.35584 -2.679138,-11.13945 -2.012702,-16.78536 0.666435,-5.64592 2.794153,-11.14292 6.287152,-15.6284 3.492998,-4.48547 8.364745,-7.92491 13.82786,-9.49809 4.73815,-1.36441 9.76845,-1.3225 14.679687,-0.88496 4.911237,0.43754 9.791873,1.25939 14.719962,1.41949 z"
       id="path4516"
       inkscape:connector-curvature="0"
       inkscape:path-effect="#path-effect4518"
       inkscape:original-d="m -41.694048,267.04113 c 9.799619,0.17847 37.0616406,-27.43993 55.592064,-41.1595 18.530424,-13.71957 2.64e-4,-70.55942 0,-105.83873 -2.65e-4,-35.279317 86.951954,-27.083581 130.427534,-40.624972 43.47558,-13.541394 80.53748,1.781532 120.80582,2.672694 40.26834,0.891164 22.09456,50.602768 33.14142,75.904548 11.04688,25.30178 -63.07534,11.7596 -94.6134,17.63979 -31.53807,5.88019 0.35662,55.5918 0.53453,83.38809 0.17792,27.7963 -148.957951,60.58085 -223.437326,90.87164 -74.479376,30.29083 -34.566596,-55.59232 -51.850291,-83.38809 -17.283692,-27.79577 19.600032,0.3561 29.399649,0.53453 z" />
  </g>
  <g
     inkscape:groupmode="layer"
     id="layer2"
     inkscape:label="Layer 2"
     style="filter:url(#filter4503)">
    <path
       style="fill:#c5c065;stroke:none;stroke-width:0.26458335px;stroke-linecap:butt;stroke-linejoin:miter;stroke-opacity:1"
       d="m 349.05403,42.000192 c -26.00175,0.78412 -51.39904,8.550712 -75.08481,19.306641 -23.68578,10.755928 -45.87909,24.482071 -68.17167,37.889038 -22.83883,13.735489 -46.23436,27.479599 -64.1325,47.226299 -8.94908,9.87335 -16.41839,21.21264 -20.99582,33.72727 -4.57743,12.51464 -6.18045,26.24344 -3.60517,39.31772 2.61963,13.29943 9.49202,25.57401 18.66276,35.55572 9.17075,9.98172 20.57647,17.74862 32.7633,23.68313 24.37365,11.86903 51.513,16.46582 77.9324,22.54563 30.49709,7.0182 60.49347,16.16571 91.15537,22.42475 30.6619,6.25905 62.33065,9.5976 93.2606,4.83674 13.17287,-2.02762 26.18674,-5.54102 38.19175,-11.33028 12.00501,-5.78926 22.99399,-13.91314 31.30665,-24.33117 8.31267,-10.41804 13.85942,-23.19112 14.846,-36.48257 0.98657,-13.29144 -2.76658,-27.04512 -11.11255,-37.43649 -6.22613,-7.75201 -14.7865,-13.45539 -24.05318,-17.05914 -9.26669,-3.60375 -19.23246,-5.17853 -29.16938,-5.5191 -19.87385,-0.68115 -39.56471,3.46817 -59.38787,5.04167 -9.91158,0.78676 -19.92158,0.92608 -29.7615,-0.50027 -9.83991,-1.42634 -19.5328,-4.46027 -27.98988,-9.68868 -8.45707,-5.22841 -15.63613,-12.73387 -19.69691,-21.80958 -4.06078,-9.07571 -4.82971,-19.74463 -1.30626,-29.04214 3.69525,-9.75084 11.67272,-17.29759 20.3248,-23.11783 8.65208,-5.82024 18.16965,-10.25259 26.88627,-15.97572 8.71662,-5.723131 16.83961,-13.062341 20.85982,-22.683754 2.0101,-4.810707 2.92326,-10.126177 2.25683,-15.297182 -0.66643,-5.171005 -2.96499,-10.177549 -6.71757,-13.797155 -3.48616,-3.362625 -8.0765,-5.422688 -12.80423,-6.475854 -4.72773,-1.053166 -9.61584,-1.153693 -14.45725,-1.007693 z"
       id="path4494"
       inkscape:connector-curvature="0"
       inkscape:path-effect="#path-effect4496"
       inkscape:original-d="M 349.05403,42.000192 C 339.9666,39.505941 253.54997,80.13038 205.79755,99.195871 158.04513,118.26136 146.64216,179.37646 117.06406,219.46716 c -29.578096,40.0907 86.23924,54.52272 129.35846,81.78448 43.11923,27.26175 122.94426,18.17406 184.41597,27.26149 61.47173,9.08743 48.8215,-73.05394 73.23185,-109.58051 24.41035,-36.52657 -127.57637,-52.38509 -191.36498,-78.57724 -63.78858,-26.19215 42.40702,-60.581359 63.61015,-90.871641 21.20312,-30.290284 -18.17407,-4.989296 -27.26148,-7.483547 z" />
  </g>
  <g
     inkscape:label="Layer 1"
     inkscape:groupmode="layer"
     id="layer1"
     transform="translate(0,-11.249992)"
     style="filter:url(#filter4489)">
    <path
       style="fill:#606767;stroke:none;stroke-width:0.26458335px;stroke-linecap:butt;stroke-linejoin:miter;stroke-opacity:1"
       d="m -19.777945,-12.498121 c 39.828526,-25.947986 89.587682,-35.737159 136.520995,-28.195714 46.93332,7.541445 90.72188,32.0736353 122.73045,67.217066 12.58282,13.815154 23.51238,29.29885 37.95227,41.159509 15.6076,12.819793 34.58678,20.803238 51.21704,32.265293 8.31513,5.731027 16.09806,12.400807 22.08246,20.535487 5.9844,8.13468 10.10749,17.82898 10.62313,27.91462 0.57821,11.3095 -3.483,22.66504 -10.54732,31.51572 -7.06432,8.85068 -16.99813,15.23568 -27.77771,18.70554 -10.77957,3.46986 -22.37157,4.09986 -33.59221,2.57136 -11.22065,-1.5285 -22.08793,-5.1728 -32.31787,-10.0295 -25.83812,-12.26673 -47.38022,-31.98532 -72.17312,-46.2469 -12.39646,-7.13079 -25.73441,-12.92184 -39.832,-15.32559 -14.0976,-2.40375 -29.03943,-1.25636 -41.94213,4.91135 -17.240444,8.24122 -29.164762,24.33059 -40.367948,39.81088 -11.203185,15.48029 -23.116312,31.57478 -40.347451,39.83544 -15.506284,7.43376 -34.025789,7.50513 -50.231368,1.75319 -16.205579,-5.75194 -30.144238,-16.99703 -40.640273,-30.6183 -11.640424,-15.1064 -19.266005,-33.20716 -22.417555,-52.01595 -3.15155,-18.80879 -1.866161,-38.294135 3.266137,-56.661561 10.264596,-36.734851 35.836379,-68.2814819 67.794473,-89.10194 z"
       id="path4485"
       inkscape:connector-curvature="0"
       inkscape:path-effect="#path-effect4487"
       inkscape:original-d="m -19.777945,-12.498121 c 16.2140865,-65.926221 172.834565,26.01397 259.251445,39.021352 86.4169,13.007381 25.3018,27.439407 37.95227,41.159509 12.65049,13.720098 55.94868,53.81 83.92263,80.7154 27.97395,26.90539 -69.4898,28.50848 -104.23511,42.76312 C 222.36799,205.4159 154.48206,153.38691 103.16604,134.50012 51.850024,115.61334 49.356038,187.5974 22.450641,214.14644 -4.4547569,240.69548 -38.13019,194.90277 -68.421,185.28133 -98.711813,175.65989 -35.992034,53.428098 -19.777945,-12.498121 Z" />
  </g>
  <g
     inkscape:groupmode="layer"
     id="layer5"
     inkscape:label="Layer 5"
     style="filter:url(#filter4521)">
    <path
       style="fill:#ae8ba4;fill-opacity:1;stroke:none;stroke-width:0.26458335px;stroke-linecap:butt;stroke-linejoin:miter;stroke-opacity:1"
       d="m 228.24819,77.814308 c 15.40751,-8.886076 30.58008,-18.283445 46.82299,-25.530629 16.24291,-7.247183 33.76495,-12.326904 51.54864,-12.02023 17.78369,0.306674 35.89179,6.427051 48.44095,19.031508 6.27458,6.302228 11.05909,14.138509 13.45672,22.702373 2.39764,8.563864 2.36039,17.845668 -0.44213,26.28571 -2.52613,7.60767 -7.16904,14.33384 -10.19074,21.75861 -1.51085,3.71239 -2.61739,7.63205 -2.77542,11.63698 -0.15802,4.00494 0.67757,8.11194 2.80992,11.50569 2.49834,3.97624 6.69397,6.76864 11.25542,7.88464 4.56144,1.116 9.44726,0.61675 13.8324,-1.06337 4.38514,-1.68012 8.28304,-4.50201 11.52877,-7.89575 3.24574,-3.39374 5.85994,-7.35184 8.05068,-11.5055 4.38149,-8.30731 7.09372,-17.38277 10.93989,-25.95107 3.84616,-8.56831 9.11363,-16.913641 17.09015,-21.871866 6.02768,-3.746818 13.30491,-5.299687 20.38597,-4.820011 7.08106,0.479676 13.96006,2.930917 20.02042,6.624634 12.12072,7.387433 20.72284,19.388333 27.48009,31.871343 12.52459,23.1373 19.8465,49.20414 20.18438,75.51167 0.33788,26.30753 -6.42084,52.80591 -20.18438,75.22834 -12.04656,19.62527 -29.4271,36.00599 -49.92801,46.4933 -20.50091,10.48731 -44.08018,14.99798 -66.96049,12.39751 -22.88031,-2.60048 -44.95654,-12.36292 -61.99611,-27.8524 -17.03956,-15.48949 -28.90136,-36.67257 -32.79286,-59.36898 -3.53845,-20.63735 -0.61317,-41.86279 -2.78049,-62.68881 -1.08367,-10.41302 -3.48944,-20.81306 -8.38412,-30.06764 -4.89468,-9.25458 -12.43578,-17.3252 -21.97683,-21.63491 -6.33707,-2.86246 -13.30862,-3.99332 -20.21979,-4.7601 -6.91117,-0.76677 -13.88791,-1.20259 -20.65822,-2.78848 -6.77031,-1.58588 -13.42934,-4.42607 -18.35774,-9.33148 -2.46421,-2.4527 -4.45877,-5.40244 -5.64684,-8.66994 -1.18806,-3.2675 -1.55167,-6.85567 -0.86571,-10.264118 0.98858,-4.912141 4.08233,-9.196927 7.82781,-12.525253 3.74549,-3.328326 8.14419,-5.818453 12.48468,-8.321771 z"
       id="path4525"
       inkscape:connector-curvature="0"
       inkscape:path-effect="#path-effect4527"
       inkscape:original-d="m 228.24819,77.814308 c 6.77056,-6.948741 106.55173,20.312222 159.82717,30.468732 53.27547,10.1565 -6.77056,29.93392 -10.15624,44.90128 -3.38566,14.96736 48.46516,-40.26888 72.69731,-60.402916 24.23218,-20.134041 45.25791,22.450376 67.88648,33.675966 22.62854,11.22558 2.6e-4,100.49307 0,150.74001 0,50.24694 -141.11807,-18.88731 -211.67747,-28.33057 C 236.26601,239.42355 284.73141,172.60564 273.684,134.47545 262.63661,96.345262 229.85207,110.59911 207.9357,98.661332 186.01934,86.723557 221.47762,84.763053 228.24819,77.814308 Z" />
  </g>
  <g
     inkscape:groupmode="layer"
     id="layer7"
     inkscape:label="Layer 7"
     style="filter:url(#filter4537)">
    <path
       style="fill:#c37363;stroke:none;stroke-width:0.26458335px;stroke-linecap:butt;stroke-linejoin:miter;stroke-opacity:1;fill-opacity:1"
       d="m -58.264757,212.51815 c 5.271271,2.1513 11.112917,2.78498 16.765837,2.10757 5.652919,-0.67741 11.117901,-2.64105 16.065009,-5.45894 9.894216,-5.63578 17.5672503,-14.52084 23.8146778,-24.04067 6.2474276,-9.51984 11.2504744,-19.79545 17.1192232,-29.55328 5.868749,-9.75784 12.754766,-19.14825 21.917746,-25.90823 11.285219,-8.32566 25.322645,-12.12898 39.24941,-13.77763 13.926765,-1.64864 28.008484,-1.31219 42.000524,-2.25854 38.72873,-2.61942 76.66526,-15.238354 109.58052,-35.81412 14.7577,-9.225234 29.14434,-20.279994 46.26301,-23.417777 8.55934,-1.568892 17.68329,-0.97667 25.51879,2.808646 3.91775,1.892659 7.47287,4.568672 10.25732,7.911989 2.78444,3.343317 4.78493,7.35902 5.62528,11.628063 1.2994,6.601067 -0.27675,13.675917 -4.07132,19.231433 -3.79457,5.555516 -9.72479,9.564186 -16.24117,11.237296 -5.06365,1.30012 -10.40304,1.23235 -15.57065,0.44072 -5.16761,-0.79163 -10.19768,-2.29003 -15.19253,-3.83353 -9.98969,-3.087 -20.40693,-6.412687 -30.70881,-4.625279 -10.29291,1.785849 -19.0722,8.490109 -26.33077,16.003179 -7.25857,7.51308 -13.4676,16.04156 -21.2432,23.01818 -17.49517,15.69744 -41.76479,22.26458 -65.26961,22.14648 C 97.779714,160.24562 74.74735,154.0092 52.384829,146.76985 36.80384,141.72587 21.316024,136.15309 5.2079039,133.19717 c -16.1081199,-2.95592 -33.0889659,-3.1787 -48.5055679,2.34736 -7.952003,2.85039 -15.404021,7.23016 -21.442679,13.13725 -6.038658,5.90709 -10.6278,13.36922 -12.728829,21.55119 -2.101029,8.18198 -1.641403,17.0734 1.714593,24.82559 3.355995,7.75218 9.668666,14.26764 17.489822,17.45959 z"
       id="path4532"
       inkscape:connector-curvature="0"
       inkscape:path-effect="#path-effect4534"
       inkscape:original-d="m -58.264757,212.51815 c -4.989299,25.65815 63.788592,-55.23596 95.682493,-82.85355 31.8939,-27.61759 54.16689,-10.69105 81.249934,-16.03617 27.08305,-5.34513 73.05395,-23.876345 109.58052,-35.81412 36.52658,-11.937776 58.4432,-0.712984 87.6644,-1.069079 29.22119,-0.356094 -13.5414,20.31222 -20.31249,30.468729 -6.77108,10.15651 -40.98106,-5.34566 -61.47199,-8.018089 -20.49093,-2.672429 -31.71572,26.013969 -47.57397,39.021359 -15.85826,13.00738 -89.445945,5.70148 -134.169311,8.55262 -44.723367,2.85114 -63.788065,-7.48381 -95.682493,-11.22532 -31.894429,-3.74151 -9.977798,51.31549 -14.967093,76.97362 z" />
  </g>
  <g
     inkscape:groupmode="layer"
     id="layer8"
     inkscape:label="Layer 8"
     style="filter:url(#filter4543)">
    <path
       style="fill:#b75051;fill-opacity:1;stroke:none;stroke-width:0.26458335px;stroke-linecap:butt;stroke-linejoin:miter;stroke-opacity:1"
       d="m 526.52097,92.246865 c 4.02929,-10.00658 8.24996,-20.092482 9.68229,-30.784313 0.71617,-5.345915 0.71697,-10.816887 -0.36378,-16.101173 -1.08075,-5.284286 -3.26809,-10.381421 -6.6458,-14.586508 -3.90448,-4.860889 -9.32288,-8.415709 -15.21634,-10.450517 -5.89345,-2.034809 -12.24635,-2.587195 -18.45458,-2.011768 -12.41646,1.150856 -24.00323,6.672423 -34.75009,12.996824 -23.24869,13.681585 -44.22162,31.825429 -58.79928,54.522984 -7.45299,11.604381 -13.24184,24.371426 -22.23861,34.824506 -4.49838,5.22654 -9.81014,9.8409 -15.9761,12.92849 -6.16595,3.08759 -13.23064,4.58632 -20.05006,3.56275 -5.90195,-0.88586 -11.42951,-3.61897 -16.1466,-7.27504 -4.71708,-3.65607 -8.66846,-8.2147 -12.18398,-13.03744 -5.46953,-7.50334 -9.97202,-15.7279 -16.06275,-22.736377 -3.04537,-3.504238 -6.49253,-6.696061 -10.44231,-9.135976 -3.94978,-2.439916 -8.42251,-4.111925 -13.05081,-4.476303 -6.75779,-0.532029 -13.73642,1.880399 -18.57815,6.624703 -4.84173,4.744303 -7.40409,11.774566 -6.5452,18.498633 0.52217,4.08794 2.24323,7.97793 4.68131,11.30053 2.43808,3.32259 5.5768,6.09425 9.01629,8.36444 6.879,4.54037 14.85247,7.06685 22.65107,9.73468 12.26447,4.19557 24.38057,8.8732 36.88318,12.2944 5.51927,1.51029 11.1384,2.77795 16.85166,3.09726 5.71327,0.31931 11.55129,-0.34038 16.82429,-2.56272 6.18175,-2.60533 11.31338,-7.22775 15.69745,-12.30532 4.38406,-5.07758 8.13318,-10.66948 12.37541,-15.86614 4.24223,-5.19665 9.07972,-10.07087 15.02475,-13.17867 2.97252,-1.5539 6.20317,-2.64614 9.53425,-3.03904 3.33107,-0.3929 6.76407,-0.074 9.90922,1.0915 3.86003,1.43047 7.18071,4.08984 9.85397,7.2203 2.67327,3.13045 4.7402,6.72995 6.60937,10.39769 3.73833,7.33548 6.90921,15.26003 12.93631,20.86882 6.68007,6.21644 16.3211,8.76757 25.38325,7.69761 9.06215,-1.06997 17.52272,-5.51585 24.32596,-11.59724 13.60649,-12.16277 20.44759,-29.95229 27.26441,-46.881575 z"
       id="path4553"
       inkscape:connector-curvature="0"
       inkscape:path-effect="#path-effect4555"
       inkscape:original-d="m 526.52097,92.246865 c 25.65762,-16.926806 1.78207,-40.981594 2.67271,-61.471994 0.89062,-20.490399 -45.61374,0.356095 -68.42101,0.534539 -22.80727,0.178445 -39.19927,36.348392 -58.79928,54.522984 -19.60005,18.174596 -38.84293,34.210236 -58.26477,51.315746 -19.42185,17.10552 -18.88678,-13.54192 -28.33058,-20.31248 -9.44377,-6.77056 -26.37034,-24.2327 -39.55587,-36.348656 -13.18557,-12.115954 -16.74864,16.748628 -25.12335,25.123336 -8.37471,8.37471 24.23271,19.5995 36.34867,29.39965 12.11593,9.80014 24.58905,8.196 36.88318,12.2944 12.29413,4.09839 22.4509,0.35609 33.67595,0.53454 11.22506,0.17844 41.69432,-28.86538 62.54108,-43.29767 20.84676,-14.432286 19.60004,25.65761 29.39965,38.48681 9.79961,12.8292 51.31602,-33.8544 76.97362,-50.781205 z" />
  </g>
  <g
     inkscape:groupmode="layer"
     id="layer6"
     inkscape:label="Layer 6">
    <rect
       style="fill:none;fill-opacity:1;stroke:#000000;stroke-width:1;stroke-miterlimit:4;stroke-dasharray:none;stroke-opacity:1"
       id="rect4530"
       width="508"
       height="285.75"
       x="0"
       y="2.1874998e-06" />
    <path
       style="fill:none;stroke:#ffffff;stroke-width:7.9375;stroke-linecap:butt;stroke-linejoin:miter;stroke-miterlimit:4;stroke-dasharray:none;stroke-opacity:1;marker-end:url(#Arrow1Send)"
       d="m 205.26301,38.258417 52.38482,47.573979"
       id="path9944"
       inkscape:connector-curvature="0" />
  </g>
</svg>
